<svg width="179" height="92" viewBox="0 0 179 92" fill="none" xmlns="http://www.w3.org/2000/svg">
<g clip-path="url(#clip0_5_13)">
<path d="M6.20316 64.4242C9.50843 61.4748 13.3192 60 17.6355 60C21.9518 60 25.3543 61.5556 27.8429 64.6667C30.3316 67.7374 31.1676 71.5152 30.351 76C30.2733 76.8889 30.001 77.9596 29.5345 79.2121H7.48638C7.64193 81.1515 8.36131 82.5859 9.64452 83.5152C10.9277 84.4444 12.5415 84.9091 14.4858 84.9091C17.4021 84.9091 19.7936 83.8788 21.6601 81.8182L26.968 86.2424C23.7016 90.0808 19.3464 92 13.9025 92C9.08068 92 5.40601 90.404 2.87846 87.2121C0.389792 84.0202 -0.485131 80.0808 0.253692 75.3939C0.914744 70.9899 2.8979 67.3333 6.20316 64.4242ZM8.53629 73.0909H23.3516C23.3128 71.0303 22.7101 69.5152 21.5435 68.5455C20.4158 67.5354 18.9576 67.0303 17.1689 67.0303C15.2245 67.0303 13.4941 67.5556 11.9777 68.6061C10.5 69.6566 9.35288 71.1515 8.53629 73.0909Z" fill="black"/>
<path d="M44.7057 65.697C46.8055 61.9798 50.0719 60.1616 54.5048 60.2424L53.0466 68.9697C51.6857 68.8081 50.3441 68.9091 49.022 69.2727C47.7388 69.596 46.4944 70.3636 45.289 71.5758C44.0835 72.7879 43.2864 74.3838 42.8975 76.3636L40.3894 91.1515H32.8651L37.9979 60.8485H45.5223L44.7057 65.697Z" fill="black"/>
<path d="M90.9845 60C94.2897 60 96.7979 61.1515 98.5085 63.4545C100.259 65.7576 100.823 68.7677 100.2 72.4848L96.9923 91.1515H89.468L92.501 73.0303C92.8121 71.2121 92.6177 69.798 91.9178 68.7879C91.2567 67.7778 90.1484 67.2727 88.5931 67.2727C85.3266 67.2727 83.188 69.1919 82.1769 73.0303L79.1439 91.1515H71.6195L74.6526 73.0303C74.9637 71.2121 74.7692 69.798 74.0693 68.7879C73.4083 67.7778 72.3195 67.2727 70.803 67.2727C69.0919 67.2727 67.6338 67.8384 66.4283 68.9697C65.2618 70.101 64.5035 71.7576 64.1536 73.9394L61.2372 91.1515H53.7128L58.8457 60.8485H66.37L65.8451 63.8788C68.1004 61.2929 70.9196 60 74.3026 60C77.8801 60 80.3494 61.5152 81.7103 64.5455C84.0823 61.5152 87.1738 60 90.9845 60Z" fill="black"/>
<path d="M103.269 91.1515L108.402 60.8485H115.926L110.793 91.1515H103.269Z" fill="black"/>
<path d="M128.593 92C122.643 92 118.697 89.5152 116.752 84.5455L123.518 81.0303C124.296 83.6162 126.202 84.9091 129.235 84.9091C131.762 84.9091 133.182 84.1212 133.493 82.5455C133.609 81.697 133.182 81.0101 132.209 80.4848C131.237 79.9596 130.032 79.4747 128.593 79.0303C127.154 78.5859 125.735 78.0606 124.335 77.4545C122.935 76.8081 121.827 75.7576 121.01 74.303C120.194 72.8485 119.96 71.0505 120.311 68.9091C120.816 66.0808 122.196 63.899 124.452 62.3636C126.746 60.7879 129.312 60 132.151 60C134.679 60 136.895 60.5657 138.8 61.697C140.706 62.8283 142.106 64.404 143 66.4242L136.234 69.9394C135.534 67.9192 134.037 66.9091 131.743 66.9091C129.487 66.9091 128.184 67.7778 127.834 69.5152C127.68 70.4444 128.068 71.1717 129.002 71.697C129.973 72.2222 131.179 72.6869 132.617 73.0909C134.095 73.4949 135.534 74 136.934 74.6061C138.372 75.1717 139.5 76.1818 140.317 77.6364C141.133 79.0505 141.347 80.8889 140.958 83.1515C140.453 86.101 139.073 88.3232 136.817 89.8182C134.601 91.2727 131.86 92 128.593 92Z" fill="black"/>
</g>
<path fill-rule="evenodd" clip-rule="evenodd" d="M126.391 17.5776L121.178 37.033C120.154 40.8568 123.718 44.3013 127.476 43.1188L139.04 39.4796L150.048 39.5444L157 46L169 37L168.942 36.9484C170.556 35.5541 171.77 33.6793 172.354 31.5015L177.963 10.5667C179.098 6.33097 175.954 2.17201 171.597 2.14635L152.323 2.03282C152.019 2.03103 151.718 2.03842 151.418 2.05474L142.169 2.00026C138.715 1.97991 135.471 3.14949 132.879 5.17004L132.875 5.16726L122 13.5L126.391 17.5776Z" fill="#9C78F2"/>
<path d="M140.778 47.8866C141.036 47.8881 141.292 47.8805 141.546 47.8639L150.932 47.9192C155.859 47.9482 160.195 44.6244 161.478 39.8342L167.088 18.8994C168.223 14.6637 165.078 10.5047 160.721 10.4791L141.447 10.3656C141.144 10.3638 140.842 10.3712 140.543 10.3875L131.293 10.333C124.471 10.2928 118.467 14.895 116.69 21.5276L110.303 45.3658C109.278 49.1896 112.842 52.6341 116.6 51.4515L128.164 47.8123L140.778 47.8866Z" fill="#5027B1"/>
<path d="M155.953 25.4178C156.668 22.7505 155.085 20.0088 152.418 19.2941C149.75 18.5794 147.009 20.1623 146.294 22.8296C145.579 25.497 147.162 28.2386 149.83 28.9534C152.497 29.6681 155.239 28.0852 155.953 25.4178Z" fill="white"/>
<path d="M142 21C142 19.8954 141.105 19 140 19C138.895 19 138 19.8954 138 21V27C138 28.1046 138.895 29 140 29C141.105 29 142 28.1046 142 27V21Z" fill="white"/>
<defs>
<clipPath id="clip0_5_13">
<rect width="143" height="32" fill="white" transform="translate(0 60)"/>
</clipPath>
</defs>
</svg>
